<svg xmlns="http://www.w3.org/2000/svg" width="54" height="54" viewBox="0 0 54 54">
  <g id="Group_48" data-name="Group 48" transform="translate(-2557.348 -4291.679)">
    <path id="Path_77" data-name="Path 77" d="M2584.348,4291.679a27,27,0,1,0,27,27A27,27,0,0,0,2584.348,4291.679Zm14.772,24.535A44.713,44.713,0,0,1,2592.9,4328c-.861,1.224-1.758,2.426-2.672,3.616-.812,1.061-1.635,2.111-2.459,3.16-1.075,1.37-2.147,2.737-3.185,4.115h-.442c-1.052-1.361-2.131-2.716-3.207-4.077-.825-1.043-1.65-2.091-2.461-3.149-.918-1.2-1.82-2.414-2.685-3.65a46.88,46.88,0,0,1-6.051-11.3c-2.655-8.593,4.865-17.817,13.583-18.259h2.021C2593.875,4298.9,2601.267,4307.686,2599.12,4316.214Z" fill="#e7cc65"/>
    <path id="Path_78" data-name="Path 78" d="M2746.425,4429.228a6.323,6.323,0,1,0,6.324,6.324A6.324,6.324,0,0,0,2746.425,4429.228Z" transform="translate(-162.476 -122.286)" fill="#e7cc65"/>
  </g>
</svg>
