<svg xmlns="http://www.w3.org/2000/svg" width="91.855" height="91.855" viewBox="0 0 91.855 91.855">
  <g id="Group_47" data-name="Group 47" transform="translate(-762.908 -803.762)">
    <path id="Path_72" data-name="Path 72" d="M808.836,803.762a45.927,45.927,0,1,0,45.927,45.927A45.927,45.927,0,0,0,808.836,803.762Zm33.094,50.84-5.361,5.141.6,7.4a2.129,2.129,0,0,1-1.53,2.221l-7.139,2.056-2.907,6.839a2.114,2.114,0,0,1-2.382,1.253l-7.278-1.491-5.748,4.706a2.136,2.136,0,0,1-2.7,0l-5.748-4.706-7.278,1.491a2.115,2.115,0,0,1-2.383-1.253l-2.907-6.839-7.137-2.056a2.129,2.129,0,0,1-1.532-2.221l.6-7.4-5.36-5.141a2.122,2.122,0,0,1-.325-2.672l3.974-6.276-2.357-7.043a2.131,2.131,0,0,1,.957-2.523l6.437-3.708,1.186-7.335a2.124,2.124,0,0,1,2.014-1.785l7.422-.292,4.461-5.944a2.127,2.127,0,0,1,2.614-.645l6.71,3.192,6.706-3.192a2.111,2.111,0,0,1,2.614.645l4.46,5.944,7.422.292a2.129,2.129,0,0,1,2.018,1.785l1.184,7.335,6.44,3.708a2.132,2.132,0,0,1,.951,2.523l-2.356,7.043,3.977,6.276A2.123,2.123,0,0,1,841.929,854.6Z" fill="#e75913"/>
    <path id="Path_73" data-name="Path 73" d="M1065.632,1020.241h4.087v-2.388h-4.087v-2.7h4.334v-2.408h-6.855v12.983h7.086v-2.408h-4.564Z" transform="translate(-243.54 -169.54)" fill="#e75913"/>
    <path id="Path_74" data-name="Path 74" d="M916.566,1017.116c-1.434-.635-2.06-1-2.06-1.83,0-.675.527-1.252,1.615-1.252a4.669,4.669,0,0,1,2.324.616l.56-2.369a5.975,5.975,0,0,0-2.834-.655,3.856,3.856,0,0,0-4.2,3.91c0,1.888,1.2,3.082,3.049,3.834,1.335.558,1.862,1.021,1.862,1.83,0,.848-.61,1.406-1.763,1.406a5.688,5.688,0,0,1-2.785-.809l-.511,2.427a6.4,6.4,0,0,0,3.148.79c3.048,0,4.482-1.849,4.482-4.026C919.45,1019.159,918.527,1017.964,916.566,1017.116Z" transform="translate(-120.805 -168.631)" fill="#e75913"/>
    <path id="Path_75" data-name="Path 75" d="M1021.021,1012.748H1018.5v12.983h6.938v-2.465h-4.416Z" transform="translate(-207.35 -169.54)" fill="#e75913"/>
    <path id="Path_76" data-name="Path 76" d="M960.347,1012.748l-3.4,12.983h2.6l.791-3.333h3.18l.857,3.333h2.7l-3.444-12.983Zm.362,7.454.659-2.754c.181-.752.346-1.734.511-2.5h.033c.164.771.362,1.734.56,2.5l.692,2.754Z" transform="translate(-157.419 -169.54)" fill="#e75913"/>
  </g>
</svg>
