<svg xmlns="http://www.w3.org/2000/svg" width="54" height="53.999" viewBox="0 0 54 53.999">
  <g id="Group_49" data-name="Group 49" transform="translate(-762.908 -2198.929)">
    <path id="Path_79" data-name="Path 79" d="M959.026,2389.126a5.893,5.893,0,1,0,5.893,5.894A5.9,5.9,0,0,0,959.026,2389.126Zm.3,9.113v1.1h-.663l0-1.053a3.035,3.035,0,0,1-1.6-.465l.253-.7a2.81,2.81,0,0,0,1.506.453,1.045,1.045,0,0,0,1.184-1.031c0-.577-.343-.936-1.122-1.251-1.073-.423-1.734-.917-1.734-1.832a1.723,1.723,0,0,1,1.577-1.695v-1.052h.663l0,1.021a2.865,2.865,0,0,1,1.369.367l-.264.694a2.531,2.531,0,0,0-1.326-.368c-.809,0-1.047.485-1.047.916,0,.535.322.808,1.238,1.2,1.083.443,1.63.979,1.63,1.915A1.815,1.815,0,0,1,959.325,2398.239Z" transform="translate(-169.117 -169.093)" fill="#e7cc65"/>
    <path id="Path_80" data-name="Path 80" d="M789.908,2198.929a27,27,0,1,0,27,27A27,27,0,0,0,789.908,2198.929Zm13.572,17.2h4.808v4.867a3.448,3.448,0,0,1-4.808-4.867Zm-31.952,0h4.809a3.438,3.438,0,0,1-.277,4.563,3.46,3.46,0,0,1-4.531.3h0Zm4.85,19.605h-4.849v-4.806a3.455,3.455,0,0,1,5.512,2.784A3.429,3.429,0,0,1,776.378,2235.731Zm31.91,0H803.37a3.452,3.452,0,0,1,4.917-4.751Zm0-5.768a4.29,4.29,0,0,0-5.911,5.769H777.371a4.268,4.268,0,0,0-.742-5.079,4.321,4.321,0,0,0-5.1-.728V2222a4.288,4.288,0,0,0,5.826-5.875H802.46a4.267,4.267,0,0,0,.694,5.166,4.26,4.26,0,0,0,5.134.709Z" transform="translate(0)" fill="#e7cc65"/>
  </g>
</svg>
