<svg xmlns="http://www.w3.org/2000/svg" width="62.457" height="62.457" viewBox="0 0 62.457 62.457">
  <g id="Group_9" data-name="Group 9" transform="translate(-4351.787 -2896.512)">
    <path id="Path_16" data-name="Path 16" d="M4430.205,3131.4a3.025,3.025,0,0,0,3.024,3.023h36.281a3.028,3.028,0,0,0,3.023-3.023V3116.28h-42.328Zm39.3-3.024h-6.047v-3.023h6.047Zm-18.141-9.07h18.141v3.024h-18.141Zm-18.14,0h9.07v6.047h-9.07Z" transform="translate(-68.354 -191.563)" fill="#e7cc65"/>
    <path id="Path_17" data-name="Path 17" d="M4383.015,2896.512a31.229,31.229,0,1,0,31.229,31.228A31.228,31.228,0,0,0,4383.015,2896.512Zm24.188,19.134v24.188a6.067,6.067,0,0,1-6.047,6.047h-36.281a6.066,6.066,0,0,1-6.047-6.047v-24.188a6.066,6.066,0,0,1,6.047-6.047h36.281A6.067,6.067,0,0,1,4407.2,2915.646Z" fill="#e7cc65"/>
    <path id="Path_18" data-name="Path 18" d="M4433.229,3022.044a3.027,3.027,0,0,0-3.024,3.024v3.023h42.328v-3.023a3.03,3.03,0,0,0-3.023-3.024Z" transform="translate(-68.354 -109.421)" fill="#e7cc65"/>
  </g>
</svg>
