<svg xmlns="http://www.w3.org/2000/svg" width="64.45" height="64.45" viewBox="0 0 64.45 64.45">
  <g id="Group_8" data-name="Group 8" transform="translate(-1959.2 -3594.095)">
    <path id="Path_14" data-name="Path 14" d="M2125.093,3713.751l.849.21v8.208l-.849.211c-6.033,1.51-7.781,7.958-8.075,13.786h2.62l4.018-4.7,5.094-5.965,5.094,5.965,4.013,4.7h2.253c-.295-5.828-2.048-12.276-8.081-13.786l-.849-.211v-8.208l.849-.21c6.133-1.538,7.836-8.164,8.092-14.069H2117C2117.257,3705.587,2118.966,3712.213,2125.093,3713.751Zm3.235,7.834a.653.653,0,1,1,.652-.652A.653.653,0,0,1,2128.329,3721.585Zm0-4.264a.609.609,0,1,1-.609.608A.609.609,0,0,1,2128.329,3717.321Zm-.609-1.741a.609.609,0,1,1,.609.61A.608.608,0,0,1,2127.719,3715.58Zm-5.681-6.874h14.271a8.972,8.972,0,0,1-7.981,4.612c-5.746,0-6.639-4.612-6.639-4.612Z" transform="translate(-136.904 -91.604)" fill="#e7cc65"/>
    <path id="Path_15" data-name="Path 15" d="M1991.425,3594.1a32.225,32.225,0,1,0,32.225,32.225A32.225,32.225,0,0,0,1991.425,3594.1Zm16.416,13.983h-2.376c-.355,8.575-3.49,14.185-8.94,16v4.768c5.389,1.792,8.514,7.3,8.93,15.717h2.387v4.49h-32.832v-4.49h2.858c.411-8.413,3.536-13.925,8.93-15.717v-4.768c-5.455-1.814-8.591-7.424-8.946-16h-2.841v-4.49h32.832Z" transform="translate(0 0)" fill="#e7cc65"/>
  </g>
</svg>
