<svg xmlns="http://www.w3.org/2000/svg" width="64.5" height="64.5" viewBox="0 0 64.5 64.5">
  <g id="Group_7" data-name="Group 7" transform="translate(-1361.055 -2198.929)">
    <path id="Path_11" data-name="Path 11" d="M1496.284,2346.884a6.972,6.972,0,1,0,6.974,6.973A6.981,6.981,0,0,0,1496.284,2346.884Zm0,12.872a5.9,5.9,0,1,1,5.9-5.9A5.9,5.9,0,0,1,1496.284,2359.756Z" transform="translate(-111.26 -128.345)" fill="#e7cc65"/>
    <path id="Path_12" data-name="Path 12" d="M1520.193,2375.356l-2.842,2.843-2.838-2.843a.536.536,0,0,0-.758.759l3.214,3.221a.538.538,0,0,0,.762,0v0l3.219-3.219a.536.536,0,1,0-.757-.759Z" transform="translate(-132.324 -152.908)" fill="#e7cc65"/>
    <path id="Path_13" data-name="Path 13" d="M1393.305,2198.929a32.25,32.25,0,1,0,32.25,32.25A32.25,32.25,0,0,0,1393.305,2198.929Zm-25.732,17.314h43.615v3.372h-8.441v16.728h-35.174Zm.775,24.588h-.7v-3.746h3.807a4.779,4.779,0,0,0-3.1,3.7C1368.352,2240.8,1368.351,2240.816,1368.348,2240.831Zm4.733,5.284a4.515,4.515,0,0,1-.011-9.03h.021a4.515,4.515,0,0,1-.011,9.03Zm35.658,0a4.515,4.515,0,1,1,4.516-4.516A4.516,4.516,0,0,1,1408.739,2246.115Zm9.352-7.628.946.056c0,.718-.019,1.456-.019,2.174-1.72,0-3.441,0-5.162-.019a5.228,5.228,0,0,0-5.6-4.122c-2.364.132-4.008,2.156-4.671,4.254h-25.775c0-.015-.005-.031-.007-.047a4.778,4.778,0,0,0-3.1-3.7h28.828c-.044-4.4-.008-8.8,0-13.2l-.014-.012v-3.317l.014.012v0h.026c2.676-.019,5.353-.038,8.048,0a9.215,9.215,0,0,0,.293,2.947c.371,1.513.982,2.987,1.352,4.5.358.894.328,2.158,1.265,2.661a1.484,1.484,0,0,0,.172.081c.458.226.919.443,1.381.658.663.308,1.327.611,1.984.912C1418.13,2234.384,1418.073,2236.425,1418.091,2238.487Z" fill="#e7cc65"/>
  </g>
</svg>
