<svg xmlns="http://www.w3.org/2000/svg" width="60.061" height="60.061" viewBox="0 0 60.061 60.061">
  <g id="Group_5" data-name="Group 5" transform="translate(-1403 -44)">
    <g id="Group_4" data-name="Group 4" transform="translate(1403 44)">
      <path id="Path_1" data-name="Path 1" d="M796.161,325.4a13.521,13.521,0,0,0,.63,2.524,54.62,54.62,0,0,0,6.009.055,12.986,12.986,0,0,0-.165-2.524A56.945,56.945,0,0,0,796.161,325.4Z" transform="translate(-785.647 -296.285)" fill="#1b383a"/>
      <path id="Path_2" data-name="Path 2" d="M807.715,371.629a11.111,11.111,0,0,0,.576,2.278c1.674.055,3.347.028,5.022,0a8.866,8.866,0,0,0-.192-2.25C811.31,371.6,809.526,371.629,807.715,371.629Z" transform="translate(-795.775 -336.859)" fill="#1b383a"/>
      <path id="Path_3" data-name="Path 3" d="M791.885,280.692a24,24,0,0,0-.137-2.826c-2.525-.164-5.048-.055-7.6-.083a14.335,14.335,0,0,0,.741,2.881C787.22,280.72,789.552,280.692,791.885,280.692Z" transform="translate(-775.115 -254.591)" fill="#1b383a"/>
      <path id="Path_4" data-name="Path 4" d="M877.9,280.663c.081-.934.164-1.894.164-2.826-2.525-.055-5.049-.028-7.574-.028a11.27,11.27,0,0,0,.192,2.881C873.1,280.718,875.485,280.746,877.9,280.663Z" transform="translate(-850.786 -254.617)" fill="#1b383a"/>
      <path id="Path_5" data-name="Path 5" d="M741,89.939a30.03,30.03,0,1,0,30.03,30.03A30.03,30.03,0,0,0,741,89.939ZM717.72,110.195c10.865-.11,21.705-.027,32.571-.055a1.549,1.549,0,0,1,1.564,2.085c-1.483,5.57-2.883,11.14-4.391,16.711a1.6,1.6,0,0,1-1.811,1.125H722.6a1.631,1.631,0,0,1-1.783-1.262c-1.427-5.46-2.772-10.976-4.171-16.437C716.321,111.511,716.705,110.277,717.72,110.195Zm9.467,32.159a3.562,3.562,0,0,1-1.756-6.888,3.55,3.55,0,0,1,4.582,2.58A3.615,3.615,0,0,1,727.187,142.354Zm17.067.055a3.617,3.617,0,0,1-3.512-4.088,3.56,3.56,0,0,1,7.078.328A3.6,3.6,0,0,1,744.254,142.409ZM764.5,111.1c-2.5.274-5.048-.056-7.546.164-2.031,7.217-3.979,14.433-5.955,21.677a1.689,1.689,0,0,1-1.837,1.372c-9.659-.027-19.291.028-28.95-.027a1.5,1.5,0,0,1-.054-2.991c9.385-.082,18.769.055,28.153-.055,2.141-7.271,3.979-14.652,6.065-21.952a1.386,1.386,0,0,1,1.4-1.042c2.825-.027,5.653-.055,8.478,0A1.492,1.492,0,0,1,764.5,111.1Z" transform="translate(-710.966 -89.939)" fill="#1b383a"/>
      <path id="Path_6" data-name="Path 6" d="M957.919,328.027c.6-.63.577-1.729.8-2.578-2,0-4.006-.083-5.981.027a10.417,10.417,0,0,0-.111,2.607C954.38,328.083,956.164,328.137,957.919,328.027Z" transform="translate(-922.766 -296.357)" fill="#1b383a"/>
      <path id="Path_7" data-name="Path 7" d="M954.223,373.9a16.728,16.728,0,0,0,.6-2.223c-1.646-.028-3.293-.055-4.965,0a12.517,12.517,0,0,0-.056,2.278C951.287,373.954,952.77,374.01,954.223,373.9Z" transform="translate(-920.304 -336.878)" fill="#1b383a"/>
      <path id="Path_8" data-name="Path 8" d="M873.694,325.356a15.3,15.3,0,0,0,.138,2.524,32.426,32.426,0,0,0,6.53-.082,16.749,16.749,0,0,0,.137-2.359A51.283,51.283,0,0,0,873.694,325.356Z" transform="translate(-853.604 -296.237)" fill="#1b383a"/>
      <path id="Path_9" data-name="Path 9" d="M961.964,280.643a15.129,15.129,0,0,0,.741-2.854c-2.387-.055-4.774-.055-7.134,0a7.689,7.689,0,0,0-.056,2.854C957.656,280.67,959.824,280.7,961.964,280.643Z" transform="translate(-925.218 -254.57)" fill="#1b383a"/>
      <path id="Path_10" data-name="Path 10" d="M876.8,371.629a7.952,7.952,0,0,0,.191,2.278c1.9.028,3.787.028,5.681.028.055-.741.356-1.619.028-2.278C880.747,371.6,878.745,371.629,876.8,371.629Z" transform="translate(-856.322 -336.859)" fill="#1b383a"/>
    </g>
  </g>
</svg>
