<svg xmlns="http://www.w3.org/2000/svg" width="35.863" height="30.828" viewBox="0 0 35.863 30.828">
  <path id="Path_71" data-name="Path 71" d="M2643.1,1591.111a8.191,8.191,0,0,1,.6,3.249c0,.04,0,.08,0,.121a9.213,9.213,0,0,1-.25,2.126c-.006.023-.012.047-.017.071-.009.04-.02.081-.03.122a13.065,13.065,0,0,1-1.56,3.636,20.9,20.9,0,0,1-1.931,2.655l0,0c-.221.283-.523.617-.863.97q-.249.268-.5.527h-.019c-.514.507-1.065,1.022-1.548,1.462h.044a48.34,48.34,0,0,1-5.139,3.994c-.968.678-2.2,1.452-3.145,2.033-.913.591-1.458.891-1.458.891l-.011-.007-.011.007s-.544-.3-1.458-.891c-.948-.581-2.178-1.355-3.146-2.033a48.246,48.246,0,0,1-5.19-4.041h0l0,0-.056-.051q-.413-.374-.793-.747a27.723,27.723,0,0,1-2.734-3.043s-1-1.456-1.013-1.453a15.535,15.535,0,0,1-.979-1.8c-.028-.057-.041-.087-.041-.087a11.627,11.627,0,0,1-.708-2.024c-.009-.041-.021-.081-.03-.122,0-.024-.011-.048-.017-.071a9.186,9.186,0,0,1-.25-2.126c0-.041,0-.081,0-.121a9.113,9.113,0,0,1,5.472-8.234c.128-.045.256-.086.385-.124a8.985,8.985,0,0,1,10.389,2.817c.116.087.175.137.175.137s.007,0,.009-.008h0a9.1,9.1,0,0,1,7.239-3.578h.08a9.082,9.082,0,0,1,3.639.756,8.118,8.118,0,0,1,4.3,3.807A9.877,9.877,0,0,1,2643.1,1591.111Z" transform="translate(-2609.344 -1583.869)" fill="none" stroke="#e1895d" stroke-width="3"/>
</svg>
