<svg xmlns="http://www.w3.org/2000/svg" width="51" height="51" viewBox="0 0 51 51">
  <path id="Path_82" data-name="Path 82" d="M190.263,106.178a25.5,25.5,0,1,0,25.5,25.5A25.5,25.5,0,0,0,190.263,106.178Zm-1.135,43.474H175.5V136.026h13.627Zm0-20.768v4.871h-15.9V124.67h15.9Zm.6-5.884a1.673,1.673,0,0,1-1.673-1.673v-.11a1.662,1.662,0,0,1,.333-1c-.77-.781-4.781-4.645-6.5-2.228-1.9,2.68,4.3,5.148,4.3,5.148-10.366-.106-7.968-6.523-5.711-8.568s3.279-.282,3.279-.282l5.019,5.552a1.664,1.664,0,0,1,.951-.3h1.414a1.661,1.661,0,0,1,.951.3l5.019-5.553s1.022-1.763,3.279.282,4.654,8.462-5.712,8.568c0,0,6.206-2.468,4.3-5.148-1.717-2.417-5.728,1.447-6.5,2.228a1.662,1.662,0,0,1,.333,1v.11A1.673,1.673,0,0,1,191.146,123Zm15.293,26.773H191.4V136.146h13.626Zm2.271-16.018H191.4V124.67h15.9Z" transform="translate(-164.763 -106.178)" fill="#e7cc65"/>
</svg>
