<svg xmlns="http://www.w3.org/2000/svg" width="52" height="52" viewBox="0 0 52 52">
  <path id="Path_81" data-name="Path 81" d="M190.763,803.762a26,26,0,1,0,26,26A26,26,0,0,0,190.763,803.762Zm-1.391,41.049a1.258,1.258,0,0,1-.5.8l-.6.435-.078.057a1.258,1.258,0,0,1-1.094.186c-.061.042-.124.082-.186.12l-.023.014c-.043.026-.087.05-.132.074a4.448,4.448,0,0,1-1.212.436,4.062,4.062,0,0,1-4.047-1.618l-7.7-10.692a4.065,4.065,0,0,1,.649-5.457c.054-.047.11-.092.167-.136a1.261,1.261,0,0,1,.514-1.189l.682-.492a1.266,1.266,0,0,1,1.762.287l2.294,3.185a1.264,1.264,0,0,1-.288,1.762l-.682.491a1.26,1.26,0,0,1-1.061.2l6.079,8.441a1.256,1.256,0,0,1,.51-.84l.683-.492a1.262,1.262,0,0,1,1.761.287l2.293,3.184A1.26,1.26,0,0,1,189.372,844.811Zm-2.349-19.889A4.683,4.683,0,0,0,184.259,826l-.855-2.167a7.152,7.152,0,0,1,4.234-1.332c2.922,0,4.532,1.71,4.532,4.055,0,2.167-1.57,3.9-3.439,5.566l-1.193.994v.039h4.871v2.485h-9.164v-1.829l1.67-1.511c2.823-2.525,4.195-3.976,4.234-5.487C189.149,825.757,188.513,824.922,187.022,824.922Zm19.438,15.884-3.078,1.231a17.226,17.226,0,0,1-12.165,5.007q-.606,0-1.2-.042l1.015-1.406.187,0a15.726,15.726,0,0,0,10.987-4.433l.629-3.365,1.324,1.1a15.838,15.838,0,0,0-12.939-24.97,15.994,15.994,0,0,0-3.02.287l-2.635,2.764L185,815.189a15.9,15.9,0,0,0-9.215,10.989l-1.592.592a17.307,17.307,0,0,1,10.376-12.965l-.413-1.325,2.738.545a17.284,17.284,0,0,1,18.373,26.795Zm-2.422-10.516v2.266h-1.551v3.081h-2.862v-3.081H193.9v-1.968l4.89-7.872h3.7v7.574Z" transform="translate(-164.763 -803.762)" fill="#e7cc65"/>
</svg>
