<svg xmlns="http://www.w3.org/2000/svg" width="51.182" height="51.182" viewBox="0 0 51.182 51.182">
  <path id="Path_19" data-name="Path 19" d="M2582.938,1501.345a25.591,25.591,0,1,0,25.591,25.591A25.591,25.591,0,0,0,2582.938,1501.345Zm19.246,15.793a9.959,9.959,0,0,1,.731,3.95c0,.049,0,.1,0,.147a11.2,11.2,0,0,1-.3,2.585c-.007.029-.014.057-.02.086-.011.049-.025.1-.037.148a15.891,15.891,0,0,1-1.9,4.421,25.4,25.4,0,0,1-2.348,3.229l0,0c-.269.345-.636.751-1.049,1.179q-.3.326-.611.641h-.023c-.625.616-1.294,1.242-1.882,1.778h.053a58.768,58.768,0,0,1-6.249,4.856c-1.177.825-2.671,1.765-3.824,2.472-1.11.719-1.772,1.083-1.772,1.083l-.014-.008-.013.008s-.662-.364-1.772-1.083c-1.153-.707-2.647-1.647-3.825-2.472a58.682,58.682,0,0,1-6.311-4.913h0l-.006-.005-.068-.062q-.5-.454-.964-.908a33.656,33.656,0,0,1-3.324-3.7s-1.212-1.77-1.232-1.767a19,19,0,0,1-1.19-2.185c-.034-.069-.05-.106-.05-.106a14.172,14.172,0,0,1-.861-2.461c-.011-.05-.025-.1-.036-.148-.006-.029-.014-.058-.021-.086a11.175,11.175,0,0,1-.3-2.585c0-.049,0-.1,0-.147a11.08,11.08,0,0,1,6.653-10.011q.232-.082.468-.15a10.926,10.926,0,0,1,12.632,3.425c.141.105.213.167.213.167a.1.1,0,0,0,.012-.009h0a11.061,11.061,0,0,1,8.8-4.35h.1a11.04,11.04,0,0,1,4.425.92,9.869,9.869,0,0,1,5.226,4.629A12.008,12.008,0,0,1,2602.184,1517.138Z" transform="translate(-2557.348 -1501.345)" fill="#1b383a"/>
</svg>
